<svg version="1.1" xmlns="http://www.w3.org/2000/svg" viewBox="-935.6344218673219 -3156.2283595034532 5373.349519193029 5373.840491890182"><desc>Created with Snap</desc><defs></defs><g><g transform="matrix(12.3093,0,0,12.3093,-710.8104,-2931.1589)">
<g id="gSkuldo9u435k">
	<g>
		<path fill="#e8715b" d="M82.06866,46.80432c0.44048,0.09728,1.81986-0.49205,3.98136-1.64856
			c2.20975-1.09238,5.2579-2.67703,8.94401-4.68989c7.51703-3.80428,17.93356-8.86331,30.43024-13.1756
			c12.47414-4.32378,26.96772-7.99401,42.01273-9.6109c1.87662-0.19844,3.75923-0.39779,5.64507-0.59735
			c1.88943-0.14902,3.78758-0.23685,5.67796-0.35662c3.77602-0.30159,7.57491-0.23849,11.32912-0.3126
			c1.87773-0.03781,3.75569,0.09517,5.61867,0.13513c1.86383,0.08778,3.71739,0.06724,5.55797,0.24432
			c3.67995,0.31842,7.31462,0.49835,10.86098,1.02225c-24.46938,0.31527-45.84834,5.87472-62.983,13.23676
			c-8.58604,3.71305-16.09875,8.00225-22.67894,12.26207c-3.22648,2.26534-6.32965,4.31355-9.06628,6.60401
			c-1.37437,1.11085-2.71513,2.19456-4.02266,3.25142c-1.23869,1.13261-2.44566,2.23617-3.62017,3.31003
			c-9.26917,8.664-14.87678,16.66336-17.84011,22.57063c-2.84336,6.059-3.17654,9.94636-1.23619,11.60844
			c12.396-15.45393,28.45402-29.09509,47.43205-39.08565c18.9328-10.01645,40.72635-16.36285,63.47681-17.78591
			c22.73022-1.48197,46.37234,1.87225,68.61374,10.25464c11.11929,4.17942,21.8819,9.59661,32.00284,16.15094
			c10.12143,6.55412,19.58212,14.25672,28.18671,22.87717c17.22528,17.23357,30.80743,38.36257,39.42282,61.36801
			c8.65921,22.994,12.38708,47.78455,11.09464,72.0957c-1.24237,24.32739-7.58545,48.12822-18.00375,69.4503
			c-10.38284,21.37689-24.93945,40.10056-41.69687,55.30795c-8.38907,7.61682-17.36337,14.36597-26.70444,20.18491
			c-9.34406,5.82074-19.09393,10.61557-28.94733,14.54181c-9.86093,3.9166-19.85266,6.91727-29.78415,9.08392
			c-9.94624,2.10358-19.82362,3.32999-29.4743,3.85846c-9.65497,0.57462-19.08638,0.22992-28.16501-0.64651
			c-1.13516-0.11664-2.26575-0.23282-3.39136-0.34888c-1.12697-0.11121-2.24884-0.22696-3.3564-0.41266
			c-2.22144-0.33698-4.42419-0.67114-6.60777-1.00272c-2.18347-0.34042-4.3194-0.83633-6.45241-1.24716
			c-1.0649-0.21622-2.12482-0.43161-3.18013-0.64587c-1.05194-0.22882-2.08591-0.51355-3.12253-0.76712
			c-2.06961-0.52557-4.12024-1.04596-6.15103-1.56174c-2.00519-0.61169-3.99089-1.21768-5.95718-1.81741
			c-0.98251-0.30374-1.9601-0.60596-2.93306-0.90634c-0.95847-0.3439-1.91188-0.68619-2.86023-1.02689
			c-1.89658-0.68607-3.77393-1.36462-5.63077-2.03653c-7.32208-2.95859-14.25258-6.03729-20.57684-9.50757
			c-12.72123-6.81235-23.36193-14.39328-32.06516-21.69196c-2.17656-1.82785-4.29309-3.57358-6.18667-5.40707
			c-1.91791-1.80673-3.80501-3.49908-5.5228-5.21066c-3.36911-3.48929-6.50893-6.61322-9.06343-9.67181
			c-1.30597-1.50275-2.53819-2.92072-3.69509-4.25165c-1.09204-1.3862-2.11286-2.68185-3.06096-3.88477
			c-0.945-1.20602-1.81723-2.31924-2.61518-3.33749c-0.77715-1.03403-1.43549-2.00656-2.04808-2.85944
			c-2.41859-3.43576-3.70066-5.25714-3.74636-5.32217c-5.46113-8.26123-10.29185-16.883-14.46608-25.78323
			c-4.16677-8.90799-7.4951-18.15073-10.23626-27.52586c-2.76757-9.37598-4.63573-18.97604-5.88218-28.62491
			c-0.68911-4.82196-0.98716-9.67961-1.33614-14.5295l-0.20802-7.29013c-0.05188-1.21474-0.04251-2.42969-0.00855-3.6449
			l0.07005-3.64503c0.42722-19.44357,3.96095-38.7907,10.20834-57.30516c3.20473-9.23248,7.07828-18.25121,11.59234-26.98227
			c4.59464-8.69124,9.87891-17.03811,15.72216-25.0221c0.69774-0.90845,2.08265-2.71173,3.77679-4.91772
			c0.42325-0.55247,0.86528-1.12967,1.32112-1.72482c0.48035-0.5741,0.97521-1.16545,1.47757-1.76587
			c1.00593-1.20171,2.04324-2.44109,3.06269-3.65897c1.98835-2.48425,4.12689-4.67604,5.64749-6.44722
			c1.54144-1.75171,2.56507-2.98889,2.63037-3.26817l-0.00708,0.00397c-17.48207,17.50659-31.66323,38.43564-41.30956,61.28998
			c-9.67891,22.84109-14.85973,47.53831-15.24643,72.3043c-0.40845,24.76634,3.97346,49.61223,12.90819,72.75127
			c8.90224,23.14932,22.40002,44.53232,39.34857,62.56775c16.89465,18.05338,37.32344,32.93442,59.85665,43.33493
			c22.51597,10.43509,47.04972,16.40039,71.79456,17.58765c24.74609,1.20511,49.72084-2.37305,73.14037-10.55167
			c23.42676-8.14722,45.24942-20.94238,63.81384-37.33554c18.55795-16.34717,34.06335-36.25995,45.19333-58.44409
			c11.15619-22.16071,17.92752-46.4855,19.90485-71.17728c1.99942-24.6918-0.77719-49.75745-8.18207-73.42302
			c-7.37558-23.67151-19.42508-45.90224-35.18915-65.02438c-15.71448-19.13124-35.16812-35.17571-56.96564-47.04198
			c-21.789-11.86739-45.88651-19.42662-70.50345-22.19782c-24.61627-2.79403-49.7552-0.82467-73.64371,5.80912
			c-23.89274,6.60539-46.50471,17.92143-66.11643,33.08085L82.06866,46.80432z" style=""></path>
	</g>
</g>


<desc>Created with Snap</desc><defs></defs></g><g><g transform="matrix(1.024,0,0,-1.024,0,0)"><path d="M437 33L291 246Q277 245 262 244Q248 244 233 244Q216 244 199 244Q182 244 161 246L161 43Q161 11 145 3Q130 -4 107 -4Q95 -4 88 -3Q81 -1 76 3Q72 8 69 17Q67 26 66 42Q64 60 63 94Q62 129 61 184Q61 239 60 317Q60 396 60 502Q60 543 70 581Q80 620 106 649Q132 679 176 697Q221 715 290 715Q339 715 385 704Q432 693 468 666Q504 639 526 593Q548 547 548 478Q548 386 508 335Q469 285 400 264L534 80Q552 56 552 31Q552 11 538 -1Q525 -12 505 -12Q483 -12 467 0Q451 13 437 33ZM448 479Q448 548 406 581Q365 615 275 615Q242 615 220 609Q198 604 185 589Q172 574 166 547Q161 521 161 480Q161 451 161 412Q161 373 162 341Q185 340 213 340Q242 340 267 340Q295 340 326 343Q358 347 385 361Q412 376 430 403Q448 431 448 479ZM869 184Q834 184 795 189Q757 195 712 213Q721 152 762 121Q804 90 882 90Q910 90 932 93Q955 97 972 101Q989 106 1002 109Q1015 113 1026 113Q1040 113 1053 104Q1066 96 1066 76Q1066 51 1045 35Q1025 19 995 9Q966 0 933 -4Q900 -7 875 -7Q816 -7 766 9Q717 25 681 57Q645 90 625 138Q605 186 605 250Q605 312 624 360Q644 408 678 441Q712 474 758 491Q805 508 859 508Q901 508 940 497Q980 486 1010 464Q1041 442 1059 408Q1078 375 1078 330Q1078 290 1063 262Q1048 234 1020 217Q993 200 954 192Q916 184 869 184ZM862 416Q835 416 810 409Q785 403 764 388Q744 374 730 350Q716 327 711 292Q749 275 785 268Q821 262 861 262Q920 262 948 276Q977 291 977 329Q977 364 950 390Q924 416 862 416ZM1408 426Q1371 426 1341 414Q1312 402 1275 378Q1275 357 1275 316Q1275 276 1274 228Q1273 181 1272 135Q1271 89 1268 58Q1266 38 1263 26Q1261 15 1256 9Q1252 3 1244 1Q1237 0 1225 0Q1213 0 1205 1Q1198 3 1193 8Q1188 14 1185 25Q1182 36 1180 55Q1178 73 1176 103Q1175 133 1174 168Q1173 204 1172 240Q1172 277 1172 308Q1172 359 1173 391Q1175 423 1179 448Q1185 490 1195 501Q1205 512 1222 512Q1247 512 1259 498Q1272 484 1275 452Q1312 484 1354 503Q1397 522 1442 522Q1485 522 1520 502Q1556 482 1579 437Q1593 410 1600 377Q1607 345 1610 309Q1611 293 1612 277Q1613 262 1613 244Q1614 227 1614 205Q1614 183 1614 153Q1614 121 1613 93Q1612 65 1607 44Q1603 24 1592 12Q1581 1 1562 1Q1516 1 1514 45Q1514 48 1514 70Q1514 93 1513 123Q1513 153 1512 184Q1512 215 1511 235Q1510 251 1508 269Q1507 288 1504 307Q1502 326 1498 343Q1494 361 1488 375Q1474 408 1453 417Q1432 426 1408 426ZM1816 65Q1813 128 1812 214Q1812 301 1812 411Q1802 410 1788 410Q1775 410 1767 410Q1749 410 1734 411Q1720 412 1709 417Q1698 422 1692 431Q1686 441 1686 458Q1686 506 1758 506Q1769 506 1785 506Q1801 506 1812 504Q1812 557 1814 589Q1816 621 1821 638Q1827 656 1836 661Q1846 667 1861 667Q1877 667 1887 656Q1897 645 1902 628Q1908 611 1909 590Q1911 569 1911 549Q1911 535 1910 523Q1910 512 1910 503Q1924 507 1939 507Q1954 508 1968 508Q2005 508 2025 496Q2045 485 2045 459Q2045 443 2038 433Q2031 424 2019 419Q2008 414 1992 412Q1977 411 1959 411Q1949 411 1936 411Q1923 411 1912 413Q1912 360 1912 316Q1912 272 1911 231Q1910 191 1909 151Q1908 111 1906 66Q1905 42 1901 29Q1898 16 1892 9Q1886 2 1878 0Q1871 -1 1861 -1Q1843 -1 1830 11Q1818 24 1816 65ZM2537 -4Q2521 -4 2511 1Q2502 7 2497 16Q2492 25 2490 37Q2488 50 2487 64Q2462 33 2422 12Q2383 -9 2322 -9Q2283 -9 2242 2Q2202 14 2169 42Q2136 71 2115 119Q2094 167 2094 240Q2094 297 2108 347Q2122 397 2150 434Q2179 472 2222 494Q2265 516 2323 516Q2374 516 2414 497Q2454 479 2486 437Q2486 449 2487 461Q2488 474 2492 484Q2497 495 2507 501Q2517 508 2534 508Q2549 508 2562 496Q2575 484 2577 444Q2580 391 2581 349Q2583 307 2583 262Q2583 207 2582 161Q2581 115 2577 63Q2575 40 2571 26Q2568 13 2563 6Q2558 0 2551 -2Q2544 -4 2537 -4ZM2483 250Q2483 302 2467 335Q2452 368 2428 386Q2405 405 2378 412Q2351 419 2328 419Q2292 419 2266 406Q2241 393 2225 370Q2209 348 2201 317Q2194 287 2194 251Q2194 163 2232 121Q2271 79 2337 79Q2376 79 2403 92Q2431 106 2448 129Q2466 152 2474 183Q2483 215 2483 250ZM2706 58Q2705 94 2704 142Q2703 190 2702 246Q2702 302 2701 364Q2701 426 2701 491Q2701 562 2702 613Q2703 664 2707 697Q2712 730 2722 745Q2732 761 2750 761Q2767 761 2780 750Q2793 739 2795 699Q2799 627 2800 549Q2801 472 2801 397Q2801 352 2801 310Q2801 269 2800 228Q2799 188 2798 146Q2797 104 2795 59Q2794 35 2790 22Q2787 9 2781 2Q2775 -5 2767 -7Q2760 -8 2750 -8Q2732 -8 2720 4Q2708 17 2706 58ZM3294 2Q3276 0 3249 -2Q3223 -3 3192 -4Q3162 -5 3128 -6Q3095 -7 3064 -7Q3010 -7 2976 -6Q2943 -5 2924 -2Q2906 2 2899 9Q2893 16 2893 28Q2893 50 2905 79Q2917 109 2933 139Q2950 169 2967 195Q2984 222 2993 237L3215 598Q3196 598 3189 597Q3183 597 3173 596Q3164 596 3144 596Q3125 596 3082 596Q3020 596 2983 597Q2947 599 2928 604Q2910 609 2904 618Q2899 627 2899 643Q2899 668 2911 678Q2923 689 2962 693Q2978 694 2998 695Q3018 697 3039 697Q3061 698 3082 698Q3103 699 3121 699Q3139 699 3155 698Q3172 698 3189 697Q3207 697 3227 696Q3247 695 3273 694Q3281 694 3293 692Q3306 691 3317 688Q3329 685 3337 678Q3345 672 3345 661Q3345 643 3328 606Q3312 570 3284 522Q3257 475 3221 419Q3186 364 3149 306Q3112 249 3076 193Q3040 137 3011 89Q3029 90 3063 90Q3098 91 3128 91Q3157 91 3201 90Q3246 89 3293 85Q3317 83 3330 80Q3343 77 3350 71Q3357 66 3358 58Q3360 50 3360 38Q3360 30 3359 24Q3358 18 3352 13Q3346 9 3332 6Q3319 4 3294 2Z" fill="#e8715b" style=""></path></g></g></g></svg>